<svg width="59" height="59" viewBox="0 0 59 59" fill="none" xmlns="http://www.w3.org/2000/svg">
<path d="M46.0446 13.2996L42.8979 15.7579L29.5 25.7142L16.1021 15.6596L12.9554 13.2013C12.2141 12.588 11.3092 12.2057 10.3528 12.1018C9.39631 11.9978 8.43038 12.1767 7.57464 12.6164C6.7189 13.056 6.01094 13.7371 5.53848 14.5751C5.06602 15.4132 4.84982 16.3715 4.91667 17.3313V45.8233C4.91667 46.71 5.26891 47.5604 5.89591 48.1874C6.52291 48.8144 7.3733 49.1667 8.26 49.1667H16.1021V30.1883L29.5 40.2429L42.8979 30.1883V49.1667H50.74C51.6267 49.1667 52.4771 48.8144 53.1041 48.1874C53.7311 47.5604 54.0833 46.71 54.0833 45.8233V17.3313C54.1295 16.3798 53.8983 15.4354 53.4177 14.6129C52.9372 13.7904 52.2281 13.1252 51.3766 12.6981C50.5251 12.2711 49.5679 12.1006 48.6213 12.2073C47.6747 12.3141 46.7795 12.6936 46.0446 13.2996Z" fill="#E5D8F6"/>
</svg>
