<svg width="59" height="59" viewBox="0 0 59 59" fill="none" xmlns="http://www.w3.org/2000/svg">
<path className="" d="M29.5 4.91669C26.2717 4.91669 23.075 5.55255 20.0924 6.78798C17.1098 8.02341 14.3998 9.83421 12.117 12.117C7.50671 16.7272 4.91669 22.9801 4.91669 29.5C4.91669 40.3659 11.9721 49.5846 21.7317 52.8542C22.9609 53.0509 23.3542 52.2888 23.3542 51.625V47.4704C16.5446 48.9454 15.0942 44.1763 15.0942 44.1763C13.9634 41.3246 12.3654 40.5625 12.3654 40.5625C10.1284 39.0384 12.5375 39.0875 12.5375 39.0875C14.9959 39.2596 16.2988 41.6196 16.2988 41.6196C18.4375 45.3563 22.0513 44.25 23.4525 43.66C23.6738 42.0621 24.3129 40.9804 25.0013 40.3659C19.5438 39.7513 13.8159 37.6371 13.8159 28.2709C13.8159 25.5421 14.75 23.3542 16.3479 21.6088C16.1021 20.9942 15.2417 18.4375 16.5938 15.1188C16.5938 15.1188 18.6588 14.455 23.3542 17.6263C25.2963 17.0854 27.4104 16.815 29.5 16.815C31.5896 16.815 33.7038 17.0854 35.6459 17.6263C40.3413 14.455 42.4063 15.1188 42.4063 15.1188C43.7584 18.4375 42.8979 20.9942 42.6521 21.6088C44.25 23.3542 45.1842 25.5421 45.1842 28.2709C45.1842 37.6617 39.4317 39.7267 33.9496 40.3413C34.8346 41.1034 35.6459 42.6029 35.6459 44.8892V51.625C35.6459 52.2888 36.0392 53.0754 37.2929 52.8542C47.0525 49.56 54.0834 40.3659 54.0834 29.5C54.0834 26.2717 53.4475 23.075 52.2121 20.0924C50.9766 17.1098 49.1658 14.3998 46.8831 12.117C44.6003 9.83421 41.8902 8.02341 38.9077 6.78798C35.9251 5.55255 32.7284 4.91669 29.5 4.91669Z" fill="#FFD7B9" fill-opacity="0.6"/>
</svg>
