<svg width="59" height="59" viewBox="0 0 59 59" fill="none" xmlns="http://www.w3.org/2000/svg">
<path d="M46.8313 12.0704C44.5775 9.79383 41.8929 7.98878 38.9342 6.76056C35.9755 5.53233 32.8019 4.90552 29.5984 4.91668C16.1759 4.91668 5.23628 15.8563 5.23628 29.2788C5.23628 33.5808 6.36711 37.76 8.48128 41.4475L5.03961 54.0834L17.9459 50.6909C21.5104 52.6329 25.5175 53.6654 29.5984 53.6654C43.0209 53.6654 53.9604 42.7258 53.9604 29.3033C53.9604 22.7888 51.4284 16.6675 46.8313 12.0704ZM29.5984 49.5354C25.96 49.5354 22.3954 48.5521 19.2734 46.7083L18.5359 46.2659L10.8659 48.2817L12.9063 40.8083L12.4146 40.0463C10.3932 36.8184 9.31991 33.0873 9.31711 29.2788C9.31711 18.1179 18.4129 9.0221 29.5738 9.0221C34.9821 9.0221 40.0709 11.1363 43.8813 14.9713C45.768 16.8493 47.2632 19.0832 48.2802 21.5434C49.2972 24.0036 49.8158 26.6412 49.8059 29.3033C49.855 40.4642 40.7592 49.5354 29.5984 49.5354ZM40.71 34.3921C40.0954 34.0971 37.0963 32.6221 36.5554 32.4008C35.99 32.2042 35.5967 32.1058 35.1788 32.6958C34.7609 33.3104 33.6054 34.6871 33.2613 35.0804C32.9171 35.4984 32.5484 35.5475 31.9338 35.2279C31.3192 34.9329 29.3525 34.2692 27.0417 32.2042C25.2225 30.5817 24.0179 28.5904 23.6492 27.9758C23.305 27.3613 23.6 27.0417 23.9196 26.7221C24.19 26.4517 24.5342 26.0092 24.8292 25.665C25.1242 25.3208 25.2471 25.0504 25.4438 24.6571C25.6404 24.2392 25.5421 23.895 25.3946 23.6C25.2471 23.305 24.0179 20.3058 23.5263 19.0767C23.0346 17.8967 22.5184 18.0442 22.1496 18.0196H20.9696C20.5517 18.0196 19.9125 18.1671 19.3471 18.7817C18.8063 19.3963 17.2329 20.8713 17.2329 23.8704C17.2329 26.8696 19.4209 29.7704 19.7159 30.1638C20.0109 30.5817 24.0179 36.7275 30.1146 39.3579C31.565 39.9971 32.6959 40.3658 33.5809 40.6363C35.0313 41.1034 36.3588 41.0296 37.4159 40.8821C38.5959 40.71 41.0296 39.4071 41.5213 37.9813C42.0375 36.5554 42.0375 35.3508 41.8654 35.0804C41.6934 34.81 41.3246 34.6871 40.71 34.3921Z" fill="#FFD7B9" fill-opacity="0.6"/>
</svg>
